<svg width="175" height="176" viewBox="0 0 175 176" fill="none" xmlns="http://www.w3.org/2000/svg">
<rect width="175" height="176" fill="#D9D9D9"/>
<path d="M80.5402 113.436L69.9337 102.598C66.6575 99.2501 61.3398 99.2501 58.0636 102.598L47.4572 113.436C44.1809 116.783 44.1809 122.217 47.4572 125.564L58.0636 136.402C61.3399 139.75 66.6575 139.75 69.9337 136.402L80.5402 125.564C83.82 122.217 83.82 116.783 80.5402 113.436ZM66.5678 128.048C66.5678 129.499 65.4186 130.673 63.9982 130.673C62.5778 130.673 61.4286 129.499 61.4286 128.048V127.391C61.4286 125.94 62.5778 124.766 63.9982 124.766C65.4186 124.766 66.5678 125.94 66.5678 127.391V128.048ZM66.5678 118.727C66.5678 120.178 65.4186 121.352 63.9982 121.352C62.5778 121.352 61.4286 120.178 61.4286 118.727V110.948C61.4286 109.497 62.5778 108.322 63.9982 108.322C65.4186 108.322 66.5678 109.497 66.5678 110.948V118.727Z" fill="black"/>
<path d="M64 88L71.8333 93.8118L79.6667 88L87.5 93.8118L95.3333 88L103.167 93.8118L111 88" stroke="black" stroke-width="3.03226" stroke-linecap="round" stroke-linejoin="round"/>
<path d="M93.8164 54.0664C95.5507 54.0777 97.2002 54.8188 98.3584 56.1104L111.325 70.4395C112.364 71.572 112.946 73.0484 112.96 74.584V120.624C112.963 121.146 112.759 121.65 112.39 122.021C112.021 122.393 111.518 122.6 110.996 122.6H82V118.58H107.851C108.432 118.54 108.889 118.063 108.906 117.479V78.1934C108.906 77.1205 108.049 76.2435 106.977 76.2178H94.1006C93.2662 76.2178 92.59 75.5423 92.5898 74.708V59.1865C92.5898 58.8857 92.4706 58.5966 92.2578 58.3838C92.0449 58.171 91.7558 58.0518 91.455 58.0518H66.8164C66.1892 58.0518 65.6808 58.5593 65.6806 59.1865V101H61.707V56.042C61.7042 55.5197 61.9093 55.0174 62.2783 54.6455C62.6473 54.2737 63.1496 54.0664 63.6718 54.0664H93.8164ZM97.7002 61.2881C97.5128 61.1064 97.2343 61.0489 96.9902 61.1426C96.7462 61.2391 96.5786 61.4694 96.5644 61.7305V71.541C96.5704 71.9068 96.8685 72.2041 97.2343 72.21H106.034C106.292 72.1957 106.52 72.0341 106.619 71.793C106.716 71.5517 106.664 71.2761 106.488 71.0859L97.7002 61.2881Z" fill="black"/>
</svg>
