<svg width="21" height="21" viewBox="0 0 21 21" fill="none" xmlns="http://www.w3.org/2000/svg">
<path d="M10.4799 2.09961C11.2116 2.09961 11.7194 2.37196 12.0943 2.65741C12.4692 2.94287 12.7308 3.2144 13.1771 3.39241C13.3354 3.45066 13.4494 3.61144 13.4527 3.77961H17.4297V4.61961H3.56966V3.77961H7.54665C7.54993 3.61145 7.66395 3.45067 7.82227 3.39241C8.2718 3.21359 8.54742 2.94043 8.91822 2.65741C9.28902 2.3744 9.78263 2.09961 10.4799 2.09961ZM10.4799 2.93961C9.97868 2.93961 9.74653 3.08481 9.42989 3.32681C9.26172 3.45478 9.07879 3.61966 8.85239 3.77961H12.1599C11.9335 3.61801 11.7506 3.45476 11.5824 3.32681C11.2682 3.08728 11.0279 2.93961 10.4799 2.93961ZM16.5896 5.03962V16.5962C16.5896 17.2942 16.4084 17.8955 15.9924 18.309C15.5765 18.7224 14.9777 18.8996 14.2731 18.8996H6.71305C6.0166 18.8996 5.4194 18.7224 5.00679 18.309C4.59419 17.8955 4.4096 17.2942 4.4096 16.5962V5.03962H16.5896ZM15.7496 5.87962H5.24962V16.5962C5.24962 17.154 5.38251 17.496 5.59742 17.7118C5.81233 17.9275 6.1577 18.0596 6.71305 18.0596H14.2731C14.8383 18.0596 15.1853 17.9275 15.4018 17.7118C15.6184 17.496 15.7496 17.154 15.7496 16.5962L15.7496 5.87962ZM13.8596 8.18962V15.7496H13.0196V8.18962H13.8596ZM10.9196 8.18962V15.7496H10.0796V8.18962H10.9196ZM7.97962 8.18962V15.7496H7.13962V8.18962H7.97962Z" fill="#FF4F63"/>
</svg>
