<svg width="24" height="24" viewBox="0 0 24 24" fill="none" xmlns="http://www.w3.org/2000/svg">
<rect width="24" height="24" rx="2" fill="black" fill-opacity="0.5"/>
<path fill-rule="evenodd" clip-rule="evenodd" d="M5 18.5V14.5C5 14.2237 5.22374 14 5.5 14C5.77626 14 6 14.2237 6 14.5V17.2931L10.6462 12.6469C10.8412 12.4519 11.1581 12.4519 11.3531 12.6469C11.5481 12.8419 11.5481 13.1588 11.3531 13.3538L6.70688 18H9.5C9.77626 18 10 18.2237 10 18.5C10 18.7763 9.77626 19 9.5 19H5.5C5.36688 19 5.24062 18.9475 5.14626 18.8538C5.05251 18.76 5 18.6331 5 18.5ZM18 6.70688L13.3538 11.3531C13.1588 11.5481 12.8419 11.5481 12.6469 11.3531C12.4519 11.1581 12.4519 10.8412 12.6469 10.6462L17.2931 6H14.5C14.2237 6 14 5.77626 14 5.5C14 5.22374 14.2237 5 14.5 5H18.5C18.6331 5 18.7594 5.0525 18.8537 5.14625C18.9475 5.24 19 5.36687 19 5.49999V9.49999C19 9.77625 18.7763 9.99999 18.5 9.99999C18.2237 9.99999 18 9.77625 18 9.49999L18 6.70688Z" fill="white"/>
</svg>
