<svg width="141" height="50" viewBox="0 0 141 50" fill="none" xmlns="http://www.w3.org/2000/svg">
<path d="M36.3881 36.2491C32.2917 37.7183 27.61 35.3921 25.7812 34.0453L29.4388 28.7196L34.5593 25.7812C37.1928 27.985 36.8758 33.678 36.3881 36.2491Z" fill="#BCC2EA"/>
<path d="M13.6119 36.2491C17.7083 37.7183 22.39 35.3921 24.2188 34.0453L20.5612 28.7196L15.4407 25.7812C12.8072 27.985 13.1242 33.678 13.6119 36.2491Z" fill="#BCC2EA"/>
<path d="M36.3881 13.7509C32.2917 12.2817 27.61 14.6079 25.7812 15.9547L29.4388 21.2804L34.5593 24.2188C37.1928 22.015 36.8758 16.322 36.3881 13.7509Z" fill="#BCC2EA"/>
<path d="M13.6591 13.7509C18.3408 12.2817 23.6912 14.6079 25.7812 15.9547L21.6012 21.2804L15.7492 24.2188C12.7395 22.015 13.1018 16.322 13.6591 13.7509Z" fill="#BCC2EA"/>
<path d="M21.0938 21.0938H28.9062V28.9062H21.0938V21.0938Z" fill="#BCC2EA"/>
<path fill-rule="evenodd" clip-rule="evenodd" d="M17.4562 9.82703C13.2185 14.0647 13.2185 20.9353 17.4562 25.173C21.6938 29.4106 28.5645 29.4106 32.8021 25.173C37.0398 20.9353 37.0398 14.0647 32.8021 9.82703C28.5645 5.58936 21.6938 5.58936 17.4562 9.82703ZM16.3793 8.75012C11.5468 13.5825 11.5468 21.4175 16.3793 26.2499C21.2117 31.0823 29.0466 31.0823 33.879 26.2499C38.7115 21.4175 38.7115 13.5825 33.879 8.75012C29.0466 3.9177 21.2117 3.9177 16.3793 8.75012Z" fill="black"/>
<path fill-rule="evenodd" clip-rule="evenodd" d="M32.7882 24.8273C28.5505 20.5896 21.6799 20.5896 17.4423 24.8273C13.2046 29.0649 13.2046 35.9355 17.4423 40.1732C21.6799 44.4109 28.5505 44.4109 32.7882 40.1732C37.0259 35.9355 37.0259 29.0649 32.7882 24.8273ZM33.8651 23.7504C29.0327 18.9179 21.1978 18.9179 16.3654 23.7504C11.5329 28.5828 11.5329 36.4177 16.3654 41.2501C21.1978 46.0825 29.0327 46.0825 33.8651 41.2501C38.6975 36.4177 38.6975 28.5828 33.8651 23.7504Z" fill="black"/>
<path fill-rule="evenodd" clip-rule="evenodd" d="M9.82727 17.4423C5.58961 21.6799 5.58961 28.5505 9.82727 32.7882C14.0649 37.0259 20.9355 37.0259 25.1732 32.7882C29.4109 28.5505 29.4109 21.6799 25.1732 17.4423C20.9355 13.2046 14.0649 13.2046 9.82727 17.4423ZM8.75037 16.3654C3.91794 21.1978 3.91794 29.0327 8.75037 33.8651C13.5828 38.6975 21.4177 38.6975 26.2501 33.8651C31.0825 29.0327 31.0825 21.1978 26.2501 16.3654C21.4177 11.5329 13.5828 11.5329 8.75037 16.3654Z" fill="black"/>
<path fill-rule="evenodd" clip-rule="evenodd" d="M40.173 17.4562C35.9353 13.2185 29.0647 13.2185 24.827 17.4562C20.5894 21.6938 20.5894 28.5645 24.827 32.8021C29.0647 37.0398 35.9353 37.0398 40.173 32.8021C44.4106 28.5645 44.4106 21.6938 40.173 17.4562ZM41.2499 16.3793C36.4175 11.5468 28.5825 11.5468 23.7501 16.3793C18.9177 21.2117 18.9177 29.0466 23.7501 33.879C28.5825 38.7115 36.4175 38.7115 41.2499 33.879C46.0823 29.0466 46.0823 21.2117 41.2499 16.3793Z" fill="black"/>
<path fill-rule="evenodd" clip-rule="evenodd" d="M26.154 15.965C25.747 15.5581 25.3194 15.1843 24.8745 14.8438C24.4225 15.1883 23.9883 15.567 23.5754 15.98C22.1853 17.3701 21.1828 19.001 20.5678 20.7384C18.8887 21.3575 17.3135 22.3413 15.965 23.6898C15.5581 24.0968 15.1843 24.5244 14.8438 24.9693C15.1883 25.4212 15.567 25.8554 15.98 26.2684C17.3178 27.6061 18.8786 28.585 20.5427 29.2048C21.1553 30.9691 22.1662 32.6258 23.5754 34.035C23.9824 34.4419 24.41 34.8157 24.8549 35.1562C25.3068 34.8117 25.741 34.433 26.154 34.02C27.5275 32.6465 28.5227 31.0378 29.1394 29.3236C30.9281 28.7134 32.6084 27.695 34.035 26.2684C34.4419 25.8614 34.8157 25.4337 35.1562 24.9889C34.8117 24.5369 34.433 24.1027 34.02 23.6898C32.595 22.2648 30.9169 21.247 29.1304 20.6366C28.513 18.9317 27.5209 17.3319 26.154 15.965Z" fill="white"/>
<path fill-rule="evenodd" clip-rule="evenodd" d="M21.8031 21.9577L21.1114 22.2128C19.6411 22.7548 18.2607 23.6163 17.0761 24.8008C17.0197 24.8572 16.9641 24.914 16.9092 24.9713C16.969 25.0338 17.0296 25.0958 17.0911 25.1573C18.2662 26.3325 19.6341 27.1896 21.0912 27.7324L21.7844 27.9906L22.0271 28.6894C22.5635 30.2343 23.4487 31.6861 24.6865 32.9239C24.7428 32.9803 24.7996 33.0359 24.8569 33.0908C24.9194 33.031 24.9814 32.9704 25.0429 32.9089C26.2494 31.7024 27.1209 30.2927 27.6609 28.7916L27.9168 28.0804L28.6321 27.8364C30.1985 27.3021 31.6708 26.4103 32.9239 25.1573C32.9803 25.1009 33.0359 25.0441 33.0908 24.9869C33.031 24.9244 32.9704 24.8623 32.9089 24.8008C31.6573 23.5492 30.1868 22.6581 28.6224 22.1235L27.9095 21.8799L27.653 21.1716C27.1124 19.6788 26.2436 18.2768 25.0429 17.0761L26.154 15.965C27.5209 17.3319 28.513 18.9317 29.1304 20.6366C30.9169 21.247 32.595 22.2648 34.02 23.6898C34.433 24.1027 34.8117 24.5369 35.1562 24.9889C34.8157 25.4337 34.4419 25.8614 34.035 26.2684C32.6084 27.695 30.9281 28.7134 29.1394 29.3236C28.5227 31.0378 27.5275 32.6465 26.154 34.02C25.741 34.433 25.3068 34.8117 24.8549 35.1562C24.41 34.8157 23.9824 34.4419 23.5754 34.035C22.1662 32.6258 21.1553 30.9691 20.5427 29.2048C18.8786 28.585 17.3178 27.6061 15.98 26.2684C15.567 25.8554 15.1883 25.4212 14.8438 24.9693C15.1843 24.5244 15.5581 24.0968 15.965 23.6898C17.3135 22.3413 18.8887 21.3575 20.5678 20.7384C21.1828 19.001 22.1853 17.3701 23.5754 15.98C23.9883 15.567 24.4225 15.1883 24.8745 14.8438C25.3194 15.1843 25.747 15.5581 26.154 15.965L25.0429 17.0761C24.9865 17.0197 24.9297 16.9641 24.8725 16.9092C24.81 16.969 24.748 17.0296 24.6865 17.0911C23.4654 18.3121 22.5876 19.7413 22.0491 21.2627L21.8031 21.9577Z" fill="black"/>
<path d="M55.3906 22V10.7266H57.7031L61.0938 19.4062H61.2266L64.6094 10.7266H66.9219V22H65.1094V13.9844H64.125L66.125 11.0391L61.8438 22H60.4688L56.1953 11.0391L58.1953 13.9844H57.2031V22H55.3906ZM73.1562 22.1719C72.3073 22.1719 71.5781 21.9922 70.9688 21.6328C70.3646 21.2734 69.8984 20.763 69.5703 20.1016C69.2422 19.4401 69.0781 18.6562 69.0781 17.75V17.7422C69.0781 16.8464 69.2396 16.0651 69.5625 15.3984C69.8906 14.7318 70.3542 14.2161 70.9531 13.8516C71.5521 13.4818 72.2552 13.2969 73.0625 13.2969C73.875 13.2969 74.5729 13.4766 75.1562 13.8359C75.7448 14.1901 76.1979 14.6875 76.5156 15.3281C76.8333 15.9688 76.9922 16.7188 76.9922 17.5781V18.2188H70.0547V16.9141H76.0391L75.1172 18.1328V17.3594C75.1172 16.7917 75.0312 16.3203 74.8594 15.9453C74.6875 15.5703 74.4479 15.2891 74.1406 15.1016C73.8385 14.9141 73.487 14.8203 73.0859 14.8203C72.6849 14.8203 72.3281 14.9193 72.0156 15.1172C71.7083 15.3099 71.4635 15.5964 71.2812 15.9766C71.1042 16.3516 71.0156 16.8125 71.0156 17.3594V18.1406C71.0156 18.6667 71.1042 19.1172 71.2812 19.4922C71.4583 19.862 71.7083 20.1484 72.0312 20.3516C72.3594 20.5495 72.7474 20.6484 73.1953 20.6484C73.5443 20.6484 73.8438 20.599 74.0938 20.5C74.349 20.3958 74.5547 20.2734 74.7109 20.1328C74.8672 19.987 74.9766 19.849 75.0391 19.7188L75.0625 19.6641H76.9062L76.8906 19.7344C76.8229 20.0104 76.6979 20.2917 76.5156 20.5781C76.3385 20.8594 76.0964 21.1224 75.7891 21.3672C75.487 21.6068 75.1172 21.8021 74.6797 21.9531C74.2422 22.099 73.7344 22.1719 73.1562 22.1719ZM82.0156 22.1406C81.3073 22.1406 80.6901 21.9635 80.1641 21.6094C79.638 21.25 79.2318 20.7396 78.9453 20.0781C78.6589 19.4167 78.5156 18.638 78.5156 17.7422V17.7266C78.5156 16.8203 78.6562 16.0391 78.9375 15.3828C79.224 14.7214 79.6276 14.2135 80.1484 13.8594C80.6745 13.5 81.2969 13.3203 82.0156 13.3203C82.4062 13.3203 82.7708 13.3828 83.1094 13.5078C83.4479 13.6276 83.7448 13.7995 84 14.0234C84.2604 14.2474 84.4635 14.513 84.6094 14.8203H84.75V10.1562H86.6875V22H84.75V20.6641H84.6094C84.4531 20.9714 84.2474 21.237 83.9922 21.4609C83.7422 21.6797 83.4505 21.849 83.1172 21.9688C82.7839 22.0833 82.4167 22.1406 82.0156 22.1406ZM82.625 20.5C83.0677 20.5 83.4479 20.3906 83.7656 20.1719C84.0885 19.9479 84.3359 19.6302 84.5078 19.2188C84.6849 18.8021 84.7734 18.3099 84.7734 17.7422V17.7266C84.7734 17.1536 84.6849 16.6615 84.5078 16.25C84.3359 15.8385 84.0885 15.5208 83.7656 15.2969C83.4479 15.0729 83.0677 14.9609 82.625 14.9609C82.1875 14.9609 81.8073 15.0729 81.4844 15.2969C81.1667 15.5156 80.9219 15.8333 80.75 16.25C80.5781 16.6615 80.4922 17.1536 80.4922 17.7266V17.7422C80.4922 18.3151 80.5781 18.8073 80.75 19.2188C80.9219 19.6302 81.1667 19.9479 81.4844 20.1719C81.8021 20.3906 82.1823 20.5 82.625 20.5ZM89.1641 22V13.4609H91.1016V22H89.1641ZM90.1406 12.0312C89.8229 12.0312 89.5495 11.9193 89.3203 11.6953C89.0911 11.4714 88.9766 11.2031 88.9766 10.8906C88.9766 10.5677 89.0911 10.2969 89.3203 10.0781C89.5495 9.85417 89.8229 9.74219 90.1406 9.74219C90.4583 9.74219 90.7292 9.85417 90.9531 10.0781C91.1823 10.2969 91.2969 10.5677 91.2969 10.8906C91.2969 11.2031 91.1823 11.4714 90.9531 11.6953C90.7292 11.9193 90.4583 12.0312 90.1406 12.0312ZM95.8281 22.1406C95.2917 22.1406 94.8099 22.0365 94.3828 21.8281C93.9609 21.6198 93.6276 21.3255 93.3828 20.9453C93.1432 20.5599 93.0234 20.1068 93.0234 19.5859V19.5703C93.0234 19.0651 93.1484 18.6302 93.3984 18.2656C93.6484 17.8958 94.0156 17.6068 94.5 17.3984C94.9844 17.1901 95.5729 17.0677 96.2656 17.0312L99.4219 16.8359V18.1172L96.5391 18.3047C95.9922 18.3359 95.5885 18.4505 95.3281 18.6484C95.0677 18.8464 94.9375 19.1224 94.9375 19.4766V19.4922C94.9375 19.8568 95.0755 20.1406 95.3516 20.3438C95.6328 20.5469 95.9896 20.6484 96.4219 20.6484C96.8125 20.6484 97.1615 20.5703 97.4688 20.4141C97.776 20.2578 98.0182 20.0469 98.1953 19.7812C98.3724 19.5104 98.4609 19.2057 98.4609 18.8672V16.1641C98.4609 15.737 98.3255 15.4115 98.0547 15.1875C97.7839 14.9583 97.3828 14.8438 96.8516 14.8438C96.4089 14.8438 96.0469 14.9219 95.7656 15.0781C95.4844 15.2292 95.2943 15.4453 95.1953 15.7266L95.1875 15.7578H93.3516L93.3594 15.6875C93.4219 15.2083 93.6094 14.7891 93.9219 14.4297C94.2344 14.0703 94.6484 13.7917 95.1641 13.5938C95.6797 13.3958 96.2734 13.2969 96.9453 13.2969C97.6849 13.2969 98.3099 13.4115 98.8203 13.6406C99.3307 13.8646 99.7188 14.1927 99.9844 14.625C100.25 15.0521 100.383 15.5651 100.383 16.1641V22H98.4609V20.8281H98.3281C98.1719 21.099 97.9688 21.3333 97.7188 21.5312C97.474 21.7292 97.1927 21.8802 96.875 21.9844C96.5573 22.0885 96.2083 22.1406 95.8281 22.1406ZM55.3906 39V27.7266H57.4062V32.4141H62.8906V27.7266H64.8984V39H62.8906V34.1094H57.4062V39H55.3906ZM69.8125 39.1406C69.276 39.1406 68.7943 39.0365 68.3672 38.8281C67.9453 38.6198 67.612 38.3255 67.3672 37.9453C67.1276 37.5599 67.0078 37.1068 67.0078 36.5859V36.5703C67.0078 36.0651 67.1328 35.6302 67.3828 35.2656C67.6328 34.8958 68 34.6068 68.4844 34.3984C68.9688 34.1901 69.5573 34.0677 70.25 34.0312L73.4062 33.8359V35.1172L70.5234 35.3047C69.9766 35.3359 69.5729 35.4505 69.3125 35.6484C69.0521 35.8464 68.9219 36.1224 68.9219 36.4766V36.4922C68.9219 36.8568 69.0599 37.1406 69.3359 37.3438C69.6172 37.5469 69.974 37.6484 70.4062 37.6484C70.7969 37.6484 71.1458 37.5703 71.4531 37.4141C71.7604 37.2578 72.0026 37.0469 72.1797 36.7812C72.3568 36.5104 72.4453 36.2057 72.4453 35.8672V33.1641C72.4453 32.737 72.3099 32.4115 72.0391 32.1875C71.7682 31.9583 71.3672 31.8438 70.8359 31.8438C70.3932 31.8438 70.0312 31.9219 69.75 32.0781C69.4688 32.2292 69.2786 32.4453 69.1797 32.7266L69.1719 32.7578H67.3359L67.3438 32.6875C67.4062 32.2083 67.5938 31.7891 67.9062 31.4297C68.2188 31.0703 68.6328 30.7917 69.1484 30.5938C69.6641 30.3958 70.2578 30.2969 70.9297 30.2969C71.6693 30.2969 72.2943 30.4115 72.8047 30.6406C73.3151 30.8646 73.7031 31.1927 73.9688 31.625C74.2344 32.0521 74.3672 32.5651 74.3672 33.1641V39H72.4453V37.8281H72.3125C72.1562 38.099 71.9531 38.3333 71.7031 38.5312C71.4583 38.7292 71.1771 38.8802 70.8594 38.9844C70.5417 39.0885 70.1927 39.1406 69.8125 39.1406ZM76.7031 39V30.4609H78.6484V31.7734H78.7812C78.9271 31.3151 79.1875 30.9583 79.5625 30.7031C79.9427 30.4479 80.4141 30.3203 80.9766 30.3203C81.1224 30.3203 81.2656 30.3307 81.4062 30.3516C81.5521 30.3672 81.6719 30.388 81.7656 30.4141V32.1562C81.6094 32.1198 81.4505 32.0938 81.2891 32.0781C81.1328 32.0573 80.9688 32.0469 80.7969 32.0469C80.3646 32.0469 79.987 32.1276 79.6641 32.2891C79.3411 32.4505 79.0911 32.6823 78.9141 32.9844C78.737 33.2812 78.6484 33.6328 78.6484 34.0391V39H76.7031ZM83.4531 39V30.4609H85.3984V31.7891H85.5312C85.7135 31.3151 86.0078 30.9479 86.4141 30.6875C86.8255 30.4271 87.3125 30.2969 87.875 30.2969C88.2604 30.2969 88.6068 30.3594 88.9141 30.4844C89.2266 30.6094 89.4948 30.7865 89.7188 31.0156C89.9427 31.2448 90.1146 31.5182 90.2344 31.8359H90.375C90.5156 31.5286 90.7109 31.2604 90.9609 31.0312C91.2161 30.7969 91.513 30.6172 91.8516 30.4922C92.1953 30.362 92.5651 30.2969 92.9609 30.2969C93.5339 30.2969 94.0234 30.4115 94.4297 30.6406C94.8411 30.8646 95.1562 31.1875 95.375 31.6094C95.599 32.0312 95.7109 32.5365 95.7109 33.125V39H93.7656V33.6016C93.7656 33.2266 93.7083 32.9167 93.5938 32.6719C93.4844 32.4271 93.3151 32.2422 93.0859 32.1172C92.8568 31.9922 92.5677 31.9297 92.2188 31.9297C91.8802 31.9297 91.5859 32.0078 91.3359 32.1641C91.0859 32.3151 90.8906 32.5208 90.75 32.7812C90.6146 33.0417 90.5469 33.3359 90.5469 33.6641V39H88.6016V33.4609C88.6016 33.1432 88.5391 32.8698 88.4141 32.6406C88.2943 32.4115 88.1172 32.237 87.8828 32.1172C87.6536 31.9922 87.3802 31.9297 87.0625 31.9297C86.7448 31.9297 86.4583 32.013 86.2031 32.1797C85.9531 32.3411 85.7552 32.5651 85.6094 32.8516C85.4688 33.1328 85.3984 33.4505 85.3984 33.8047V39H83.4531ZM101.688 39.1719C100.839 39.1719 100.107 38.9948 99.4922 38.6406C98.8776 38.2812 98.4036 37.7708 98.0703 37.1094C97.7422 36.4479 97.5781 35.6562 97.5781 34.7344V34.7188C97.5781 33.8073 97.7448 33.0208 98.0781 32.3594C98.4115 31.6927 98.8828 31.1823 99.4922 30.8281C100.107 30.474 100.839 30.2969 101.688 30.2969C102.536 30.2969 103.266 30.474 103.875 30.8281C104.49 31.1823 104.964 31.6901 105.297 32.3516C105.63 33.013 105.797 33.8021 105.797 34.7188V34.7344C105.797 35.6562 105.63 36.4479 105.297 37.1094C104.969 37.7708 104.497 38.2812 103.883 38.6406C103.273 38.9948 102.542 39.1719 101.688 39.1719ZM101.688 37.5938C102.135 37.5938 102.516 37.4818 102.828 37.2578C103.146 37.0286 103.388 36.7031 103.555 36.2812C103.721 35.8542 103.805 35.3411 103.805 34.7422V34.7266C103.805 34.1224 103.721 33.6094 103.555 33.1875C103.388 32.7604 103.146 32.4349 102.828 32.2109C102.516 31.9818 102.135 31.8672 101.688 31.8672C101.24 31.8672 100.857 31.9818 100.539 32.2109C100.221 32.4349 99.9792 32.7604 99.8125 33.1875C99.6458 33.6094 99.5625 34.1224 99.5625 34.7266V34.7422C99.5625 35.3411 99.6458 35.8542 99.8125 36.2812C99.9792 36.7083 100.219 37.0339 100.531 37.2578C100.849 37.4818 101.234 37.5938 101.688 37.5938ZM107.75 39V30.4609H109.695V31.7734H109.828C110.031 31.3099 110.339 30.9479 110.75 30.6875C111.161 30.4271 111.674 30.2969 112.289 30.2969C113.242 30.2969 113.971 30.5729 114.477 31.125C114.982 31.6771 115.234 32.4609 115.234 33.4766V39H113.289V33.9297C113.289 33.263 113.148 32.763 112.867 32.4297C112.591 32.0964 112.159 31.9297 111.57 31.9297C111.185 31.9297 110.852 32.0156 110.57 32.1875C110.289 32.3594 110.073 32.6016 109.922 32.9141C109.771 33.2266 109.695 33.5964 109.695 34.0234V39H107.75ZM118.18 42C118.06 42 117.935 41.9974 117.805 41.9922C117.68 41.987 117.557 41.9792 117.438 41.9688V40.4766C117.516 40.487 117.607 40.4922 117.711 40.4922C117.815 40.4974 117.917 40.5 118.016 40.5C118.417 40.5 118.737 40.4115 118.977 40.2344C119.221 40.0625 119.396 39.7839 119.5 39.3984L119.602 39.0078L116.547 30.4609H118.672L120.922 38.0234L120.391 37.1328H121.062L120.547 38.0234L122.797 30.4609H124.844L121.781 39.1875C121.536 39.8958 121.255 40.4557 120.938 40.8672C120.62 41.2786 120.237 41.5703 119.789 41.7422C119.346 41.9141 118.81 42 118.18 42Z" fill="black"/>
</svg>
