<svg width="18" height="19" viewBox="0 0 18 19" fill="none" xmlns="http://www.w3.org/2000/svg">
<path d="M14.4911 1.63867H10.5668C9.21107 1.63867 8.12007 2.72973 8.12007 4.06764V8.66159L4.60007 8.6609L9.00007 13.0609L13.4001 8.6609H9.88007V4.06766C9.88007 3.69778 10.197 3.39872 10.549 3.39872H14.4733C14.8432 3.39872 15.1422 3.71566 15.1422 4.06766V15.0326C15.1422 15.4025 14.8253 15.7016 14.4733 15.7016L3.50902 15.7009C3.13913 15.7009 2.84008 15.3839 2.84008 15.0319V3.3987H1.08008V15.0497C1.08008 16.3876 2.17114 17.4787 3.50905 17.4787H14.474C15.8291 17.4787 16.9201 16.3876 16.9201 15.0497V4.06768C16.9201 2.7298 15.829 1.63867 14.4911 1.63867Z" fill="#7B84FF"/>
</svg>
