<svg width="13" height="13" viewBox="0 0 13 13" fill="none" xmlns="http://www.w3.org/2000/svg">
<path d="M6.5001 0C8.24703 0 9.88567 0.69316 11.0962 1.90385C11.3146 2.12221 11.5167 2.3553 11.7015 2.60158L11.7 1.30003C11.7 0.9669 11.9509 0.692172 12.2743 0.654602L12.35 0.650031C12.6831 0.650031 12.9579 0.900892 12.9954 1.22437L13 1.30003V4.55003C13 4.88316 12.7491 5.15789 12.4257 5.19546L12.35 5.20003H9.10001C8.74099 5.20003 8.45001 4.90905 8.45001 4.55003C8.45001 4.2169 8.70087 3.94217 9.02435 3.9046L9.10002 3.90003H11.0042C10.7773 3.5075 10.499 3.14542 10.177 2.82296C9.20762 1.85355 7.89852 1.30001 6.49999 1.30001C3.6283 1.30001 1.30001 3.62831 1.30001 6.5C1.30001 9.3717 3.6283 11.7 6.49999 11.7C7.89852 11.7 9.20762 11.1465 10.177 10.1771C10.6599 9.69413 11.0444 9.1208 11.3059 8.49004C11.4359 8.17672 11.5349 7.8507 11.6009 7.51555C11.6705 7.16313 12.0128 6.9341 12.3647 7.00418C12.7171 7.07375 12.9461 7.41552 12.876 7.76793C12.7933 8.18688 12.6694 8.59567 12.5063 8.9882C12.1793 9.77683 11.6994 10.4928 11.0961 11.0962C9.88549 12.3068 8.24678 13 6.49997 13C2.9103 13 0 10.0897 0 6.5C0 2.91032 2.91042 0 6.5001 0Z" fill="white"/>
</svg>
